<?xml version="1.0" encoding="utf-8" standalone="no"?>
<!DOCTYPE svg PUBLIC "-//W3C//DTD SVG 1.1//EN"
  "http://www.w3.org/Graphics/SVG/1.1/DTD/svg11.dtd">
<svg xmlns:xlink="http://www.w3.org/1999/xlink" width="400.645pt" height="322.012pt" viewBox="0 0 400.645 322.012" xmlns="http://www.w3.org/2000/svg" version="1.1">
 <metadata>
  <rdf:RDF xmlns:dc="http://purl.org/dc/elements/1.1/" xmlns:cc="http://creativecommons.org/ns#" xmlns:rdf="http://www.w3.org/1999/02/22-rdf-syntax-ns#">
   <cc:Work>
    <dc:type rdf:resource="http://purl.org/dc/dcmitype/StillImage"/>
    <dc:date>2022-04-17T10:36:50.483229</dc:date>
    <dc:format>image/svg+xml</dc:format>
    <dc:creator>
     <cc:Agent>
      <dc:title>Matplotlib v3.5.0, https://matplotlib.org/</dc:title>
     </cc:Agent>
    </dc:creator>
   </cc:Work>
  </rdf:RDF>
 </metadata>
 <defs>
  <style type="text/css">*{stroke-linejoin: round; stroke-linecap: butt}</style>
 </defs>
 <g id="figure_1">
  <g id="patch_1">
   <path d="M 0 322.012 
L 400.645 322.012 
L 400.645 0 
L 0 0 
z
" style="fill: #ffffff"/>
  </g>
  <g id="axes_1">
   <g id="patch_2">
    <path d="M 36.325 287.562 
L 393.445 287.562 
L 393.445 21.45 
L 36.325 21.45 
z
" style="fill: #ffffff"/>
   </g>
   <g id="matplotlib.axis_1">
    <g id="xtick_1">
     <g id="line2d_1">
      <defs>
       <path id="m698c7f052a" d="M 0 0 
L 0 3.5 
" style="stroke: #000000; stroke-width: 0.8"/>
      </defs>
      <g>
       <use xlink:href="#m698c7f052a" x="52.557727" y="287.562" style="stroke: #000000; stroke-width: 0.8"/>
      </g>
     </g>
     <g id="text_1">
      <!-- 0 -->
      <g transform="translate(50.057727 301.437)scale(0.1 -0.1)">
       <defs>
        <path id="SimHei-30" d="M 225 2537 
Q 250 3200 412 3587 
Q 575 3975 875 4225 
Q 1175 4475 1612 4475 
Q 2050 4475 2375 4112 
Q 2700 3750 2800 3200 
Q 2900 2650 2862 1937 
Q 2825 1225 2612 775 
Q 2400 325 1975 150 
Q 1550 -25 1125 187 
Q 700 400 525 750 
Q 350 1100 275 1487 
Q 200 1875 225 2537 
z
M 750 2687 
Q 675 2000 800 1462 
Q 925 925 1212 700 
Q 1500 475 1800 612 
Q 2100 750 2237 1162 
Q 2375 1575 2375 2062 
Q 2375 2550 2337 2950 
Q 2300 3350 2112 3675 
Q 1925 4000 1612 4012 
Q 1300 4025 1062 3700 
Q 825 3375 750 2687 
z
" transform="scale(0.015625)"/>
       </defs>
       <use xlink:href="#SimHei-30"/>
      </g>
     </g>
    </g>
    <g id="xtick_2">
     <g id="line2d_2">
      <g>
       <use xlink:href="#m698c7f052a" x="117.618758" y="287.562" style="stroke: #000000; stroke-width: 0.8"/>
      </g>
     </g>
     <g id="text_2">
      <!-- 100 -->
      <g transform="translate(110.118758 301.437)scale(0.1 -0.1)">
       <defs>
        <path id="SimHei-31" d="M 1400 3600 
Q 1075 3275 575 2975 
L 575 3450 
Q 1200 3875 1600 4450 
L 1900 4450 
L 1900 150 
L 1400 150 
L 1400 3600 
z
" transform="scale(0.015625)"/>
       </defs>
       <use xlink:href="#SimHei-31"/>
       <use xlink:href="#SimHei-30" x="50"/>
       <use xlink:href="#SimHei-30" x="100"/>
      </g>
     </g>
    </g>
    <g id="xtick_3">
     <g id="line2d_3">
      <g>
       <use xlink:href="#m698c7f052a" x="182.67979" y="287.562" style="stroke: #000000; stroke-width: 0.8"/>
      </g>
     </g>
     <g id="text_3">
      <!-- 200 -->
      <g transform="translate(175.17979 301.437)scale(0.1 -0.1)">
       <defs>
        <path id="SimHei-32" d="M 300 250 
Q 325 625 650 925 
Q 975 1225 1475 1862 
Q 1975 2500 2125 2850 
Q 2275 3200 2237 3450 
Q 2200 3700 2000 3862 
Q 1800 4025 1537 4000 
Q 1275 3975 1037 3800 
Q 800 3625 675 3275 
L 200 3350 
Q 400 3925 712 4187 
Q 1025 4450 1450 4475 
Q 1700 4500 1900 4462 
Q 2100 4425 2312 4287 
Q 2525 4150 2662 3875 
Q 2800 3600 2762 3212 
Q 2725 2825 2375 2287 
Q 2025 1750 1025 600 
L 2825 600 
L 2825 150 
L 300 150 
L 300 250 
z
" transform="scale(0.015625)"/>
       </defs>
       <use xlink:href="#SimHei-32"/>
       <use xlink:href="#SimHei-30" x="50"/>
       <use xlink:href="#SimHei-30" x="100"/>
      </g>
     </g>
    </g>
    <g id="xtick_4">
     <g id="line2d_4">
      <g>
       <use xlink:href="#m698c7f052a" x="247.740821" y="287.562" style="stroke: #000000; stroke-width: 0.8"/>
      </g>
     </g>
     <g id="text_4">
      <!-- 300 -->
      <g transform="translate(240.240821 301.437)scale(0.1 -0.1)">
       <defs>
        <path id="SimHei-33" d="M 250 1225 
L 700 1300 
Q 800 975 1025 762 
Q 1250 550 1587 562 
Q 1925 575 2125 837 
Q 2325 1100 2300 1437 
Q 2275 1775 2037 1962 
Q 1800 2150 1275 2225 
L 1275 2550 
Q 1800 2600 2037 2825 
Q 2275 3050 2250 3412 
Q 2225 3775 1925 3937 
Q 1625 4100 1287 3975 
Q 950 3850 750 3275 
L 300 3350 
Q 450 3800 712 4100 
Q 975 4400 1425 4450 
Q 1875 4500 2212 4337 
Q 2550 4175 2687 3837 
Q 2825 3500 2725 3100 
Q 2625 2700 2150 2400 
Q 2500 2250 2687 1950 
Q 2875 1650 2812 1162 
Q 2750 675 2375 375 
Q 2000 75 1525 87 
Q 1050 100 700 387 
Q 350 675 250 1225 
z
" transform="scale(0.015625)"/>
       </defs>
       <use xlink:href="#SimHei-33"/>
       <use xlink:href="#SimHei-30" x="50"/>
       <use xlink:href="#SimHei-30" x="100"/>
      </g>
     </g>
    </g>
    <g id="xtick_5">
     <g id="line2d_5">
      <g>
       <use xlink:href="#m698c7f052a" x="312.801852" y="287.562" style="stroke: #000000; stroke-width: 0.8"/>
      </g>
     </g>
     <g id="text_5">
      <!-- 400 -->
      <g transform="translate(305.301852 301.437)scale(0.1 -0.1)">
       <defs>
        <path id="SimHei-34" d="M 2000 1100 
L 75 1100 
L 75 1525 
L 2100 4450 
L 2475 4450 
L 2475 1525 
L 3075 1525 
L 3075 1100 
L 2475 1100 
L 2475 150 
L 2000 150 
L 2000 1100 
z
M 2000 1525 
L 2000 3500 
L 600 1525 
L 2000 1525 
z
" transform="scale(0.015625)"/>
       </defs>
       <use xlink:href="#SimHei-34"/>
       <use xlink:href="#SimHei-30" x="50"/>
       <use xlink:href="#SimHei-30" x="100"/>
      </g>
     </g>
    </g>
    <g id="xtick_6">
     <g id="line2d_6">
      <g>
       <use xlink:href="#m698c7f052a" x="377.862883" y="287.562" style="stroke: #000000; stroke-width: 0.8"/>
      </g>
     </g>
     <g id="text_6">
      <!-- 500 -->
      <g transform="translate(370.362883 301.437)scale(0.1 -0.1)">
       <defs>
        <path id="SimHei-35" d="M 550 1325 
Q 725 650 1150 575 
Q 1575 500 1837 662 
Q 2100 825 2212 1087 
Q 2325 1350 2312 1675 
Q 2300 2000 2137 2225 
Q 1975 2450 1725 2525 
Q 1475 2600 1162 2525 
Q 850 2450 650 2175 
L 225 2225 
Q 275 2375 700 4375 
L 2675 4375 
L 2675 3925 
L 1075 3925 
Q 950 3250 825 2850 
Q 1200 3025 1525 3012 
Q 1850 3000 2150 2862 
Q 2450 2725 2587 2487 
Q 2725 2250 2787 2012 
Q 2850 1775 2837 1500 
Q 2825 1225 2725 937 
Q 2625 650 2425 462 
Q 2225 275 1937 162 
Q 1650 50 1275 75 
Q 900 100 562 350 
Q 225 600 100 1200 
L 550 1325 
z
" transform="scale(0.015625)"/>
       </defs>
       <use xlink:href="#SimHei-35"/>
       <use xlink:href="#SimHei-30" x="50"/>
       <use xlink:href="#SimHei-30" x="100"/>
      </g>
     </g>
    </g>
    <g id="text_7">
     <!-- Number of Generation -->
     <g transform="translate(164.885 313.562)scale(0.1 -0.1)">
      <defs>
       <path id="SimHei-4e" d="M 2850 125 
L 2225 125 
L 850 3225 
L 825 3225 
L 825 125 
L 250 125 
L 250 4400 
L 875 4400 
L 2250 1300 
L 2275 1300 
L 2275 4400 
L 2850 4400 
L 2850 125 
z
" transform="scale(0.015625)"/>
       <path id="SimHei-75" d="M 2800 125 
L 2300 125 
L 2300 650 
Q 2100 375 1862 225 
Q 1625 75 1250 75 
Q 800 75 575 325 
Q 350 575 350 950 
L 350 2925 
L 850 2925 
L 850 1125 
Q 850 825 1000 650 
Q 1150 475 1400 475 
Q 1725 475 2012 812 
Q 2300 1150 2300 1650 
L 2300 2925 
L 2800 2925 
L 2800 125 
z
" transform="scale(0.015625)"/>
       <path id="SimHei-6d" d="M 3050 125 
L 2550 125 
L 2550 2150 
Q 2550 2300 2500 2400 
Q 2450 2500 2300 2500 
Q 2125 2500 1975 2312 
Q 1825 2125 1825 1825 
L 1825 125 
L 1325 125 
L 1325 2150 
Q 1325 2300 1275 2400 
Q 1225 2500 1075 2500 
Q 900 2500 750 2312 
Q 600 2125 600 1825 
L 600 125 
L 100 125 
L 100 2925 
L 600 2925 
L 600 2550 
Q 725 2750 900 2862 
Q 1075 2975 1275 2975 
Q 1475 2975 1612 2862 
Q 1750 2750 1800 2550 
Q 1925 2750 2087 2862 
Q 2250 2975 2450 2975 
Q 2750 2975 2900 2812 
Q 3050 2650 3050 2350 
L 3050 125 
z
" transform="scale(0.015625)"/>
       <path id="SimHei-62" d="M 2825 1525 
Q 2825 800 2475 437 
Q 2125 75 1625 75 
Q 1350 75 1150 175 
Q 950 275 800 500 
L 800 125 
L 300 125 
L 300 4400 
L 800 4400 
L 800 2550 
Q 950 2775 1150 2887 
Q 1350 3000 1625 3000 
Q 2125 3000 2475 2625 
Q 2825 2250 2825 1525 
z
M 2275 1525 
Q 2275 2000 2087 2275 
Q 1900 2550 1525 2550 
Q 1225 2550 1012 2275 
Q 800 2000 800 1525 
Q 800 1050 1012 787 
Q 1225 525 1525 525 
Q 1900 525 2087 787 
Q 2275 1050 2275 1525 
z
" transform="scale(0.015625)"/>
       <path id="SimHei-65" d="M 2850 1075 
Q 2800 625 2450 350 
Q 2100 75 1625 75 
Q 1025 75 637 462 
Q 250 850 250 1525 
Q 250 2200 637 2587 
Q 1025 2975 1625 2975 
Q 2150 2975 2487 2637 
Q 2825 2300 2825 1525 
L 800 1525 
Q 800 975 1037 750 
Q 1275 525 1625 525 
Q 1900 525 2075 662 
Q 2250 800 2300 1075 
L 2850 1075 
z
M 2250 1925 
Q 2200 2275 2025 2412 
Q 1850 2550 1575 2550 
Q 1325 2550 1125 2412 
Q 925 2275 825 1925 
L 2250 1925 
z
" transform="scale(0.015625)"/>
       <path id="SimHei-72" d="M 2500 2425 
Q 2025 2500 1700 2287 
Q 1375 2075 1150 1550 
L 1150 125 
L 650 125 
L 650 2925 
L 1150 2925 
L 1150 2200 
Q 1375 2600 1712 2787 
Q 2050 2975 2500 2975 
L 2500 2425 
z
" transform="scale(0.015625)"/>
       <path id="SimHei-20" transform="scale(0.015625)"/>
       <path id="SimHei-6f" d="M 2925 1525 
Q 2925 875 2525 475 
Q 2125 75 1575 75 
Q 1025 75 625 475 
Q 225 875 225 1525 
Q 225 2175 625 2575 
Q 1025 2975 1575 2975 
Q 2125 2975 2525 2575 
Q 2925 2175 2925 1525 
z
M 2375 1525 
Q 2375 2025 2125 2275 
Q 1875 2525 1575 2525 
Q 1275 2525 1025 2275 
Q 775 2025 775 1525 
Q 775 1025 1025 775 
Q 1275 525 1575 525 
Q 1875 525 2125 775 
Q 2375 1025 2375 1525 
z
" transform="scale(0.015625)"/>
       <path id="SimHei-66" d="M 2850 3825 
Q 2725 3900 2550 3950 
Q 2375 4000 2100 4000 
Q 1825 4000 1725 3862 
Q 1625 3725 1625 3525 
L 1625 2925 
L 2650 2925 
L 2650 2525 
L 1625 2525 
L 1625 125 
L 1125 125 
L 1125 2525 
L 275 2525 
L 275 2925 
L 1125 2925 
L 1125 3500 
Q 1125 3950 1400 4200 
Q 1675 4450 2125 4450 
Q 2400 4450 2562 4412 
Q 2725 4375 2850 4325 
L 2850 3825 
z
" transform="scale(0.015625)"/>
       <path id="SimHei-47" d="M 2850 75 
L 2425 75 
L 2350 425 
Q 2250 275 2037 175 
Q 1825 75 1575 75 
Q 1050 75 637 562 
Q 225 1050 225 2125 
Q 225 3300 600 3875 
Q 975 4450 1625 4450 
Q 2200 4450 2525 4025 
Q 2850 3600 2850 2925 
L 2300 2925 
Q 2300 3450 2125 3712 
Q 1950 3975 1625 3975 
Q 1225 3975 1025 3562 
Q 825 3150 825 2175 
Q 825 1250 1075 900 
Q 1325 550 1650 550 
Q 1975 550 2162 787 
Q 2350 1025 2350 1525 
L 2350 1800 
L 1575 1800 
L 1575 2275 
L 2850 2275 
L 2850 75 
z
" transform="scale(0.015625)"/>
       <path id="SimHei-6e" d="M 2800 125 
L 2300 125 
L 2300 1925 
Q 2300 2225 2150 2400 
Q 2000 2575 1750 2575 
Q 1425 2575 1137 2237 
Q 850 1900 850 1400 
L 850 125 
L 350 125 
L 350 2925 
L 850 2925 
L 850 2400 
Q 1050 2675 1287 2825 
Q 1525 2975 1900 2975 
Q 2350 2975 2575 2725 
Q 2800 2475 2800 2100 
L 2800 125 
z
" transform="scale(0.015625)"/>
       <path id="SimHei-61" d="M 2875 125 
L 2275 125 
Q 2225 175 2200 262 
Q 2175 350 2175 475 
Q 2000 275 1750 175 
Q 1500 75 1225 75 
Q 825 75 550 275 
Q 275 475 275 850 
Q 275 1225 525 1450 
Q 775 1675 1300 1750 
Q 1650 1800 1912 1875 
Q 2175 1950 2175 2075 
Q 2175 2225 2062 2375 
Q 1950 2525 1575 2525 
Q 1275 2525 1137 2412 
Q 1000 2300 950 2100 
L 400 2100 
Q 450 2500 762 2737 
Q 1075 2975 1575 2975 
Q 2125 2975 2400 2725 
Q 2675 2475 2675 2025 
L 2675 650 
Q 2675 500 2725 375 
Q 2775 250 2875 125 
z
M 2175 1050 
L 2175 1550 
Q 2025 1500 1887 1462 
Q 1750 1425 1425 1375 
Q 1050 1325 937 1200 
Q 825 1075 825 900 
Q 825 750 937 637 
Q 1050 525 1275 525 
Q 1500 525 1762 650 
Q 2025 775 2175 1050 
z
" transform="scale(0.015625)"/>
       <path id="SimHei-74" d="M 2750 200 
Q 2625 150 2462 112 
Q 2300 75 2025 75 
Q 1575 75 1300 325 
Q 1025 575 1025 1025 
L 1025 2525 
L 175 2525 
L 175 2925 
L 1025 2925 
L 1025 3900 
L 1525 3900 
L 1525 2925 
L 2550 2925 
L 2550 2525 
L 1525 2525 
L 1525 1000 
Q 1525 800 1625 662 
Q 1725 525 2000 525 
Q 2275 525 2450 575 
Q 2625 625 2750 700 
L 2750 200 
z
" transform="scale(0.015625)"/>
       <path id="SimHei-69" d="M 1800 3725 
L 1300 3725 
L 1300 4375 
L 1800 4375 
L 1800 3725 
z
M 1800 125 
L 1300 125 
L 1300 2925 
L 1800 2925 
L 1800 125 
z
" transform="scale(0.015625)"/>
      </defs>
      <use xlink:href="#SimHei-4e"/>
      <use xlink:href="#SimHei-75" x="50"/>
      <use xlink:href="#SimHei-6d" x="100"/>
      <use xlink:href="#SimHei-62" x="150"/>
      <use xlink:href="#SimHei-65" x="200"/>
      <use xlink:href="#SimHei-72" x="250"/>
      <use xlink:href="#SimHei-20" x="300"/>
      <use xlink:href="#SimHei-6f" x="350"/>
      <use xlink:href="#SimHei-66" x="400"/>
      <use xlink:href="#SimHei-20" x="450"/>
      <use xlink:href="#SimHei-47" x="500"/>
      <use xlink:href="#SimHei-65" x="550"/>
      <use xlink:href="#SimHei-6e" x="600"/>
      <use xlink:href="#SimHei-65" x="650"/>
      <use xlink:href="#SimHei-72" x="700"/>
      <use xlink:href="#SimHei-61" x="750"/>
      <use xlink:href="#SimHei-74" x="800"/>
      <use xlink:href="#SimHei-69" x="850"/>
      <use xlink:href="#SimHei-6f" x="900"/>
      <use xlink:href="#SimHei-6e" x="950"/>
     </g>
    </g>
   </g>
   <g id="matplotlib.axis_2">
    <g id="ytick_1">
     <g id="line2d_7">
      <defs>
       <path id="mb781ab460b" d="M 0 0 
L -3.5 0 
" style="stroke: #000000; stroke-width: 0.8"/>
      </defs>
      <g>
       <use xlink:href="#mb781ab460b" x="36.325" y="275.610099" style="stroke: #000000; stroke-width: 0.8"/>
      </g>
     </g>
     <g id="text_8">
      <!-- 0 -->
      <g transform="translate(24.325 279.047599)scale(0.1 -0.1)">
       <use xlink:href="#SimHei-30"/>
      </g>
     </g>
    </g>
    <g id="ytick_2">
     <g id="line2d_8">
      <g>
       <use xlink:href="#mb781ab460b" x="36.325" y="240.585671" style="stroke: #000000; stroke-width: 0.8"/>
      </g>
     </g>
     <g id="text_9">
      <!-- 5 -->
      <g transform="translate(24.325 244.023171)scale(0.1 -0.1)">
       <use xlink:href="#SimHei-35"/>
      </g>
     </g>
    </g>
    <g id="ytick_3">
     <g id="line2d_9">
      <g>
       <use xlink:href="#mb781ab460b" x="36.325" y="205.561243" style="stroke: #000000; stroke-width: 0.8"/>
      </g>
     </g>
     <g id="text_10">
      <!-- 10 -->
      <g transform="translate(19.325 208.998743)scale(0.1 -0.1)">
       <use xlink:href="#SimHei-31"/>
       <use xlink:href="#SimHei-30" x="50"/>
      </g>
     </g>
    </g>
    <g id="ytick_4">
     <g id="line2d_10">
      <g>
       <use xlink:href="#mb781ab460b" x="36.325" y="170.536815" style="stroke: #000000; stroke-width: 0.8"/>
      </g>
     </g>
     <g id="text_11">
      <!-- 15 -->
      <g transform="translate(19.325 173.974315)scale(0.1 -0.1)">
       <use xlink:href="#SimHei-31"/>
       <use xlink:href="#SimHei-35" x="50"/>
      </g>
     </g>
    </g>
    <g id="ytick_5">
     <g id="line2d_11">
      <g>
       <use xlink:href="#mb781ab460b" x="36.325" y="135.512387" style="stroke: #000000; stroke-width: 0.8"/>
      </g>
     </g>
     <g id="text_12">
      <!-- 20 -->
      <g transform="translate(19.325 138.949887)scale(0.1 -0.1)">
       <use xlink:href="#SimHei-32"/>
       <use xlink:href="#SimHei-30" x="50"/>
      </g>
     </g>
    </g>
    <g id="ytick_6">
     <g id="line2d_12">
      <g>
       <use xlink:href="#mb781ab460b" x="36.325" y="100.487959" style="stroke: #000000; stroke-width: 0.8"/>
      </g>
     </g>
     <g id="text_13">
      <!-- 25 -->
      <g transform="translate(19.325 103.925459)scale(0.1 -0.1)">
       <use xlink:href="#SimHei-32"/>
       <use xlink:href="#SimHei-35" x="50"/>
      </g>
     </g>
    </g>
    <g id="ytick_7">
     <g id="line2d_13">
      <g>
       <use xlink:href="#mb781ab460b" x="36.325" y="65.46353" style="stroke: #000000; stroke-width: 0.8"/>
      </g>
     </g>
     <g id="text_14">
      <!-- 30 -->
      <g transform="translate(19.325 68.90103)scale(0.1 -0.1)">
       <use xlink:href="#SimHei-33"/>
       <use xlink:href="#SimHei-30" x="50"/>
      </g>
     </g>
    </g>
    <g id="ytick_8">
     <g id="line2d_14">
      <g>
       <use xlink:href="#mb781ab460b" x="36.325" y="30.439102" style="stroke: #000000; stroke-width: 0.8"/>
      </g>
     </g>
     <g id="text_15">
      <!-- 35 -->
      <g transform="translate(19.325 33.876602)scale(0.1 -0.1)">
       <use xlink:href="#SimHei-33"/>
       <use xlink:href="#SimHei-35" x="50"/>
      </g>
     </g>
    </g>
    <g id="text_16">
     <!-- Value -->
     <g transform="translate(14.075 167.006)rotate(-90)scale(0.1 -0.1)">
      <defs>
       <path id="SimHei-56" d="M 3050 4400 
L 1800 75 
L 1300 75 
L 50 4400 
L 650 4400 
L 1525 1125 
L 1575 1125 
L 2450 4400 
L 3050 4400 
z
" transform="scale(0.015625)"/>
       <path id="SimHei-6c" d="M 1825 125 
L 1325 125 
L 1325 4400 
L 1825 4400 
L 1825 125 
z
" transform="scale(0.015625)"/>
      </defs>
      <use xlink:href="#SimHei-56"/>
      <use xlink:href="#SimHei-61" x="50"/>
      <use xlink:href="#SimHei-6c" x="100"/>
      <use xlink:href="#SimHei-75" x="150"/>
      <use xlink:href="#SimHei-65" x="200"/>
     </g>
    </g>
   </g>
   <g id="line2d_15">
    <path d="M 52.557727 33.546 
L 53.208338 33.546 
L 53.858948 37.645061 
L 55.810779 37.645061 
L 57.111999 93.774001 
L 57.76261 97.118571 
L 58.41322 137.14873 
L 59.06383 155.070531 
L 59.714441 208.509312 
L 66.871154 208.509312 
L 67.521764 212.928166 
L 68.822985 212.928166 
L 69.473595 226.909517 
L 70.124206 227.016851 
L 70.774816 234.416536 
L 72.726647 234.416536 
L 73.377257 241.909547 
L 74.678478 241.909547 
L 75.329088 242.128956 
L 77.280919 242.128956 
L 77.931529 251.054214 
L 79.88336 251.054214 
L 80.533971 253.528448 
L 81.184581 256.902466 
L 83.136412 256.902466 
L 83.787022 257.077382 
L 84.437633 257.648924 
L 85.088243 257.648924 
L 85.738853 259.64506 
L 87.040074 259.64506 
L 87.690684 261.857164 
L 88.341294 261.857164 
L 88.991905 262.056141 
L 90.293125 262.089591 
L 90.943736 263.240931 
L 92.244956 263.240931 
L 92.895567 265.389359 
L 93.546177 265.389359 
L 94.196787 265.992216 
L 95.498008 266.423379 
L 96.148618 266.423379 
L 96.799228 268.707002 
L 98.100449 268.71281 
L 98.751059 269.785236 
L 102.004111 270.052988 
L 103.305332 270.125252 
L 105.257163 270.156927 
L 105.907773 270.242294 
L 106.558383 270.611075 
L 107.859604 270.751987 
L 108.510214 270.952509 
L 109.160824 270.952509 
L 110.462045 271.539063 
L 111.112655 271.541782 
L 112.413876 272.141483 
L 113.064486 272.144044 
L 113.715097 272.48167 
L 115.016317 272.57437 
L 120.2212 272.874112 
L 121.52242 272.985018 
L 122.173031 273.625063 
L 123.474251 273.727082 
L 124.124862 273.738567 
L 125.426082 274.315633 
L 126.076692 274.339777 
L 126.727303 274.489967 
L 128.679134 274.595749 
L 129.980354 274.794401 
L 131.932185 274.916266 
L 133.884016 275.045217 
L 139.088899 275.26105 
L 149.498664 275.40505 
L 178.125517 275.459405 
L 377.212273 275.466 
L 377.212273 275.466 
" clip-path="url(#pe9e9667d36)" style="fill: none; stroke: #1f77b4; stroke-width: 1.5; stroke-linecap: square"/>
   </g>
   <g id="patch_3">
    <path d="M 36.325 287.562 
L 36.325 21.45 
" style="fill: none; stroke: #000000; stroke-width: 0.8; stroke-linejoin: miter; stroke-linecap: square"/>
   </g>
   <g id="patch_4">
    <path d="M 393.445 287.562 
L 393.445 21.45 
" style="fill: none; stroke: #000000; stroke-width: 0.8; stroke-linejoin: miter; stroke-linecap: square"/>
   </g>
   <g id="patch_5">
    <path d="M 36.325 287.562 
L 393.445 287.562 
" style="fill: none; stroke: #000000; stroke-width: 0.8; stroke-linejoin: miter; stroke-linecap: square"/>
   </g>
   <g id="patch_6">
    <path d="M 36.325 21.45 
L 393.445 21.45 
" style="fill: none; stroke: #000000; stroke-width: 0.8; stroke-linejoin: miter; stroke-linecap: square"/>
   </g>
   <g id="text_17">
    <!-- igd -->
    <g transform="translate(205.885 15.45)scale(0.12 -0.12)">
     <defs>
      <path id="SimHei-67" d="M 2975 2500 
Q 2800 2550 2637 2562 
Q 2475 2575 2300 2525 
Q 2375 2450 2425 2337 
Q 2475 2225 2475 2000 
Q 2475 1575 2187 1300 
Q 1900 1025 1475 1025 
Q 1375 1025 1212 1062 
Q 1050 1100 950 1150 
Q 875 1100 850 1050 
Q 825 1000 825 925 
Q 825 800 1000 737 
Q 1175 675 1625 675 
Q 2350 675 2612 475 
Q 2875 275 2875 -25 
Q 2875 -425 2487 -612 
Q 2100 -800 1575 -800 
Q 900 -800 575 -625 
Q 250 -450 250 -150 
Q 250 0 375 150 
Q 500 300 700 400 
Q 550 475 462 587 
Q 375 700 375 875 
Q 375 1025 487 1137 
Q 600 1250 750 1325 
Q 625 1450 550 1625 
Q 475 1800 475 2000 
Q 475 2425 762 2700 
Q 1050 2975 1475 2975 
Q 1700 2975 1862 2912 
Q 2025 2850 2150 2725 
Q 2350 2875 2550 2937 
Q 2750 3000 2975 2975 
L 2975 2500 
z
M 1975 2000 
Q 1975 2250 1850 2400 
Q 1725 2550 1475 2550 
Q 1225 2550 1100 2400 
Q 975 2250 975 2000 
Q 975 1750 1100 1600 
Q 1225 1450 1475 1450 
Q 1725 1450 1850 1600 
Q 1975 1750 1975 2000 
z
M 2400 -75 
Q 2400 25 2287 125 
Q 2175 225 1725 225 
Q 1625 225 1450 237 
Q 1275 250 1050 275 
Q 850 200 775 100 
Q 700 0 700 -100 
Q 700 -250 900 -350 
Q 1100 -450 1600 -450 
Q 2025 -450 2212 -337 
Q 2400 -225 2400 -75 
z
" transform="scale(0.015625)"/>
      <path id="SimHei-64" d="M 2750 125 
L 2250 125 
L 2250 500 
Q 2100 275 1900 175 
Q 1700 75 1425 75 
Q 925 75 575 437 
Q 225 800 225 1525 
Q 225 2250 575 2625 
Q 925 3000 1425 3000 
Q 1700 3000 1900 2887 
Q 2100 2775 2250 2550 
L 2250 4400 
L 2750 4400 
L 2750 125 
z
M 2250 1525 
Q 2250 2000 2037 2275 
Q 1825 2550 1525 2550 
Q 1150 2550 962 2275 
Q 775 2000 775 1525 
Q 775 1050 962 787 
Q 1150 525 1525 525 
Q 1825 525 2037 787 
Q 2250 1050 2250 1525 
z
" transform="scale(0.015625)"/>
     </defs>
     <use xlink:href="#SimHei-69"/>
     <use xlink:href="#SimHei-67" x="50"/>
     <use xlink:href="#SimHei-64" x="100"/>
    </g>
   </g>
   <g id="legend_1">
    <g id="patch_7">
     <path d="M 339.445 42.7 
L 386.445 42.7 
Q 388.445 42.7 388.445 40.7 
L 388.445 28.45 
Q 388.445 26.45 386.445 26.45 
L 339.445 26.45 
Q 337.445 26.45 337.445 28.45 
L 337.445 40.7 
Q 337.445 42.7 339.445 42.7 
z
" style="fill: #ffffff; opacity: 0.8; stroke: #cccccc; stroke-linejoin: miter"/>
    </g>
    <g id="line2d_16">
     <path d="M 341.445 33.95 
L 351.445 33.95 
L 361.445 33.95 
" style="fill: none; stroke: #1f77b4; stroke-width: 1.5; stroke-linecap: square"/>
    </g>
    <g id="text_18">
     <!-- igd -->
     <g transform="translate(369.445 37.45)scale(0.1 -0.1)">
      <use xlink:href="#SimHei-69"/>
      <use xlink:href="#SimHei-67" x="50"/>
      <use xlink:href="#SimHei-64" x="100"/>
     </g>
    </g>
   </g>
  </g>
 </g>
 <defs>
  <clipPath id="pe9e9667d36">
   <rect x="36.325" y="21.45" width="357.12" height="266.112"/>
  </clipPath>
 </defs>
</svg>
