<?xml version="1.0" encoding="utf-8" standalone="no"?>
<!DOCTYPE svg PUBLIC "-//W3C//DTD SVG 1.1//EN"
  "http://www.w3.org/Graphics/SVG/1.1/DTD/svg11.dtd">
<!-- Created with matplotlib (https://matplotlib.org/) -->
<svg height="274.626673pt" version="1.1" viewBox="0 0 303.547226 274.626673" width="303.547226pt" xmlns="http://www.w3.org/2000/svg" xmlns:xlink="http://www.w3.org/1999/xlink">
 <metadata>
  <rdf:RDF xmlns:cc="http://creativecommons.org/ns#" xmlns:dc="http://purl.org/dc/elements/1.1/" xmlns:rdf="http://www.w3.org/1999/02/22-rdf-syntax-ns#">
   <cc:Work>
    <dc:type rdf:resource="http://purl.org/dc/dcmitype/StillImage"/>
    <dc:date>2021-01-14T22:04:25.519121</dc:date>
    <dc:format>image/svg+xml</dc:format>
    <dc:creator>
     <cc:Agent>
      <dc:title>Matplotlib v3.3.3, https://matplotlib.org/</dc:title>
     </cc:Agent>
    </dc:creator>
   </cc:Work>
  </rdf:RDF>
 </metadata>
 <defs>
  <style type="text/css">*{stroke-linecap:butt;stroke-linejoin:round;}</style>
 </defs>
 <g id="figure_1">
  <g id="patch_1">
   <path d="M 0 274.626673 
L 303.547226 274.626673 
L 303.547226 0 
L 0 0 
z
" style="fill:#ffffff;"/>
  </g>
  <g id="patch_2">
   <path d="M 40.965958 262.224 
L 295.989958 262.224 
L 295.989958 7.2 
L 40.965958 7.2 
z
" style="fill:#ffffff;"/>
  </g>
  <g id="pane3d_1">
   <g id="patch_3">
    <path d="M 171.924229 126.95126 
L 285.432518 183.39774 
L 290.615545 76.753262 
L 171.924229 25.308407 
" style="fill:#f2f2f2;opacity:0.5;stroke:#f2f2f2;stroke-linejoin:miter;"/>
   </g>
  </g>
  <g id="pane3d_2">
   <g id="patch_4">
    <path d="M 171.924229 126.95126 
L 58.415939 183.39774 
L 53.232913 76.753262 
L 171.924229 25.308407 
" style="fill:#e6e6e6;opacity:0.5;stroke:#e6e6e6;stroke-linejoin:miter;"/>
   </g>
  </g>
  <g id="pane3d_3">
   <g id="patch_5">
    <path d="M 171.924229 126.95126 
L 58.415939 183.39774 
L 171.924229 248.512739 
L 285.432518 183.39774 
" style="fill:#ececec;opacity:0.5;stroke:#ececec;stroke-linejoin:miter;"/>
   </g>
  </g>
  <g id="axis3d_1">
   <g id="line2d_1">
    <path d="M 285.432518 183.39774 
L 171.924229 248.512739 
" style="fill:none;stroke:#000000;stroke-linecap:square;stroke-width:0.8;"/>
   </g>
   <g id="text_1">
    <!-- F1 -->
    <g transform="translate(248.370313 249.614278)scale(0.1 -0.1)">
     <defs>
      <path d="M 45.703125 61.328125 
L 13.671875 61.328125 
L 13.671875 39.453125 
L 37.890625 39.453125 
L 37.890625 32.03125 
L 13.671875 32.03125 
L 13.671875 1.953125 
L 4.6875 1.953125 
L 4.6875 68.75 
L 45.703125 68.75 
z
" id="SimHei-70"/>
      <path d="M 21.875 56.25 
Q 16.796875 51.171875 8.984375 46.484375 
L 8.984375 53.90625 
Q 18.75 60.546875 25 69.53125 
L 29.6875 69.53125 
L 29.6875 2.34375 
L 21.875 2.34375 
z
" id="SimHei-49"/>
     </defs>
     <use xlink:href="#SimHei-70"/>
     <use x="50" xlink:href="#SimHei-49"/>
    </g>
   </g>
   <g id="Line3DCollection_1">
    <path d="M 278.693772 187.26348 
L 165.153095 130.318473 
L 164.864089 28.368511 
" style="fill:none;stroke:#b0b0b0;stroke-width:0.8;"/>
    <path d="M 259.90264 198.043173 
L 146.29333 139.697236 
L 145.185887 36.897714 
" style="fill:none;stroke:#b0b0b0;stroke-width:0.8;"/>
    <path d="M 240.629847 209.099175 
L 126.983232 149.299946 
L 125.017254 45.639486 
" style="fill:none;stroke:#b0b0b0;stroke-width:0.8;"/>
    <path d="M 220.856634 220.442248 
L 107.206475 159.134719 
L 104.339623 54.601875 
" style="fill:none;stroke:#b0b0b0;stroke-width:0.8;"/>
    <path d="M 200.563253 232.083719 
L 86.945936 169.210073 
L 83.13348 63.793339 
" style="fill:none;stroke:#b0b0b0;stroke-width:0.8;"/>
    <path d="M 179.728905 244.03552 
L 66.183644 179.534942 
L 61.3783 73.222774 
" style="fill:none;stroke:#b0b0b0;stroke-width:0.8;"/>
   </g>
   <g id="xtick_1">
    <g id="line2d_2">
     <path d="M 277.720936 186.775565 
L 280.642792 188.240988 
" style="fill:none;stroke:#000000;stroke-linecap:square;stroke-width:0.8;"/>
    </g>
    <g id="text_2">
     <!-- 0.0 -->
     <g transform="translate(281.347226 208.311697)scale(0.1 -0.1)">
      <defs>
       <path d="M 3.125 29.296875 
Q 3.90625 50 6.4375 56.046875 
Q 8.984375 62.109375 13.671875 66.015625 
Q 18.359375 69.921875 25.1875 69.921875 
Q 32.03125 69.921875 37.109375 64.25 
Q 42.1875 58.59375 43.75 50 
Q 45.3125 41.40625 44.71875 30.265625 
Q 44.140625 19.140625 40.8125 12.109375 
Q 37.5 5.078125 30.859375 2.34375 
Q 24.21875 -0.390625 17.578125 2.921875 
Q 10.9375 6.25 8.203125 11.71875 
Q 5.46875 17.1875 4.296875 23.234375 
Q 3.125 29.296875 3.90625 50 
z
M 12.890625 52.734375 
Q 10.546875 31.25 12.5 22.84375 
Q 14.453125 14.453125 18.9375 10.9375 
Q 23.4375 7.421875 28.125 9.5625 
Q 32.8125 11.71875 34.953125 18.15625 
Q 37.109375 24.609375 37.109375 32.21875 
Q 37.109375 39.84375 36.515625 46.09375 
Q 35.9375 52.34375 33 57.421875 
Q 30.078125 62.5 25.1875 62.6875 
Q 20.3125 62.890625 16.59375 57.8125 
Q 12.890625 52.734375 10.546875 31.25 
z
" id="SimHei-48"/>
       <path d="M 16.796875 1.953125 
L 7.8125 1.953125 
L 7.8125 10.546875 
L 16.796875 10.546875 
z
" id="SimHei-46"/>
      </defs>
      <use xlink:href="#SimHei-48"/>
      <use x="50" xlink:href="#SimHei-46"/>
      <use x="100" xlink:href="#SimHei-48"/>
     </g>
    </g>
   </g>
   <g id="xtick_2">
    <g id="line2d_3">
     <path d="M 258.9284 197.542836 
L 261.854516 199.045591 
" style="fill:none;stroke:#000000;stroke-linecap:square;stroke-width:0.8;"/>
    </g>
    <g id="text_3">
     <!-- 0.1 -->
     <g transform="translate(262.639031 219.297483)scale(0.1 -0.1)">
      <use xlink:href="#SimHei-48"/>
      <use x="50" xlink:href="#SimHei-46"/>
      <use x="100" xlink:href="#SimHei-49"/>
     </g>
    </g>
   </g>
   <g id="xtick_3">
    <g id="line2d_4">
     <path d="M 239.65445 208.585935 
L 242.584086 210.127467 
" style="fill:none;stroke:#000000;stroke-linecap:square;stroke-width:0.8;"/>
    </g>
    <g id="text_4">
     <!-- 0.2 -->
     <g transform="translate(243.450114 230.565558)scale(0.1 -0.1)">
      <defs>
       <path d="M 4.6875 3.90625 
Q 5.078125 9.765625 10.15625 14.453125 
Q 15.234375 19.140625 23.046875 29.09375 
Q 30.859375 39.0625 33.203125 44.53125 
Q 35.546875 50 34.953125 53.90625 
Q 34.375 57.8125 31.25 60.34375 
Q 28.125 62.890625 24.015625 62.5 
Q 19.921875 62.109375 16.203125 59.375 
Q 12.5 56.640625 10.546875 51.171875 
L 3.125 52.34375 
Q 6.25 61.328125 11.125 65.421875 
Q 16.015625 69.53125 22.65625 69.921875 
Q 26.5625 70.3125 29.6875 69.71875 
Q 32.8125 69.140625 36.125 66.984375 
Q 39.453125 64.84375 41.59375 60.546875 
Q 43.75 56.25 43.15625 50.1875 
Q 42.578125 44.140625 37.109375 35.734375 
Q 31.640625 27.34375 16.015625 9.375 
L 44.140625 9.375 
L 44.140625 2.34375 
L 4.6875 2.34375 
z
" id="SimHei-50"/>
      </defs>
      <use xlink:href="#SimHei-48"/>
      <use x="50" xlink:href="#SimHei-46"/>
      <use x="100" xlink:href="#SimHei-50"/>
     </g>
    </g>
   </g>
   <g id="xtick_4">
    <g id="line2d_5">
     <path d="M 219.880346 219.915598 
L 222.8127 221.497429 
" style="fill:none;stroke:#000000;stroke-linecap:square;stroke-width:0.8;"/>
    </g>
    <g id="text_5">
     <!-- 0.3 -->
     <g transform="translate(223.761707 242.126942)scale(0.1 -0.1)">
      <defs>
       <path d="M 3.90625 19.140625 
L 10.9375 20.3125 
Q 12.5 15.234375 16.015625 11.90625 
Q 19.53125 8.59375 24.796875 8.78125 
Q 30.078125 8.984375 33.203125 13.078125 
Q 36.328125 17.1875 35.9375 22.453125 
Q 35.546875 27.734375 31.828125 30.65625 
Q 28.125 33.59375 19.921875 34.765625 
L 19.921875 39.84375 
Q 28.125 40.625 31.828125 44.140625 
Q 35.546875 47.65625 35.15625 53.3125 
Q 34.765625 58.984375 30.078125 61.515625 
Q 25.390625 64.0625 20.109375 62.109375 
Q 14.84375 60.15625 11.71875 51.171875 
L 4.6875 52.34375 
Q 7.03125 59.375 11.125 64.0625 
Q 15.234375 68.75 22.265625 69.53125 
Q 29.296875 70.3125 34.5625 67.765625 
Q 39.84375 65.234375 41.984375 59.953125 
Q 44.140625 54.6875 42.578125 48.4375 
Q 41.015625 42.1875 33.59375 37.5 
Q 39.0625 35.15625 41.984375 30.46875 
Q 44.921875 25.78125 43.9375 18.15625 
Q 42.96875 10.546875 37.109375 5.859375 
Q 31.25 1.171875 23.828125 1.359375 
Q 16.40625 1.5625 10.9375 6.046875 
Q 5.46875 10.546875 3.90625 19.140625 
z
" id="SimHei-51"/>
      </defs>
      <use xlink:href="#SimHei-48"/>
      <use x="50" xlink:href="#SimHei-46"/>
      <use x="100" xlink:href="#SimHei-51"/>
     </g>
    </g>
   </g>
   <g id="xtick_5">
    <g id="line2d_6">
     <path d="M 199.586366 231.543128 
L 202.520566 233.166858 
" style="fill:none;stroke:#000000;stroke-linecap:square;stroke-width:0.8;"/>
    </g>
    <g id="text_6">
     <!-- 0.4 -->
     <g transform="translate(203.55405 253.993239)scale(0.1 -0.1)">
      <defs>
       <path d="M 31.25 17.1875 
L 1.171875 17.1875 
L 1.171875 23.828125 
L 32.8125 69.53125 
L 38.671875 69.53125 
L 38.671875 23.828125 
L 48.046875 23.828125 
L 48.046875 17.1875 
L 38.671875 17.1875 
L 38.671875 2.34375 
L 31.25 2.34375 
z
M 31.25 23.828125 
L 31.25 54.6875 
L 9.375 23.828125 
z
" id="SimHei-52"/>
      </defs>
      <use xlink:href="#SimHei-48"/>
      <use x="50" xlink:href="#SimHei-46"/>
      <use x="100" xlink:href="#SimHei-52"/>
     </g>
    </g>
   </g>
   <g id="xtick_6">
    <g id="line2d_7">
     <path d="M 178.751733 243.480428 
L 181.686836 245.147744 
" style="fill:none;stroke:#000000;stroke-linecap:square;stroke-width:0.8;"/>
    </g>
    <g id="text_7">
     <!-- 0.5 -->
     <g transform="translate(182.806326 266.176673)scale(0.1 -0.1)">
      <defs>
       <path d="M 8.59375 20.703125 
Q 11.328125 10.15625 17.96875 8.984375 
Q 24.609375 7.8125 28.703125 10.34375 
Q 32.8125 12.890625 34.5625 16.984375 
Q 36.328125 21.09375 36.125 26.171875 
Q 35.9375 31.25 33.390625 34.765625 
Q 30.859375 38.28125 26.953125 39.453125 
Q 23.046875 40.625 18.15625 39.453125 
Q 13.28125 38.28125 10.15625 33.984375 
L 3.515625 34.765625 
Q 4.296875 37.109375 10.9375 68.359375 
L 41.796875 68.359375 
L 41.796875 61.328125 
L 16.796875 61.328125 
Q 14.84375 50.78125 12.890625 44.53125 
Q 18.75 47.265625 23.828125 47.0625 
Q 28.90625 46.875 33.59375 44.71875 
Q 38.28125 42.578125 40.421875 38.859375 
Q 42.578125 35.15625 43.546875 31.4375 
Q 44.53125 27.734375 44.328125 23.4375 
Q 44.140625 19.140625 42.578125 14.640625 
Q 41.015625 10.15625 37.890625 7.21875 
Q 34.765625 4.296875 30.265625 2.53125 
Q 25.78125 0.78125 19.921875 1.171875 
Q 14.0625 1.5625 8.78125 5.46875 
Q 3.515625 9.375 1.5625 18.75 
z
" id="SimHei-53"/>
      </defs>
      <use xlink:href="#SimHei-48"/>
      <use x="50" xlink:href="#SimHei-46"/>
      <use x="100" xlink:href="#SimHei-53"/>
     </g>
    </g>
   </g>
  </g>
  <g id="axis3d_2">
   <g id="line2d_8">
    <path d="M 58.415939 183.39774 
L 171.924229 248.512739 
" style="fill:none;stroke:#000000;stroke-linecap:square;stroke-width:0.8;"/>
   </g>
   <g id="text_8">
    <!-- F2 -->
    <g transform="translate(85.478144 249.614278)scale(0.1 -0.1)">
     <use xlink:href="#SimHei-70"/>
     <use x="50" xlink:href="#SimHei-50"/>
    </g>
   </g>
   <g id="Line3DCollection_2">
    <path d="M 178.984368 28.368511 
L 178.695362 130.318473 
L 65.154685 187.26348 
" style="fill:none;stroke:#b0b0b0;stroke-width:0.8;"/>
    <path d="M 198.6619 36.897423 
L 197.554485 139.696917 
L 83.945177 198.042805 
" style="fill:none;stroke:#b0b0b0;stroke-width:0.8;"/>
    <path d="M 218.829829 45.63889 
L 216.863911 149.299292 
L 103.217297 209.098421 
" style="fill:none;stroke:#b0b0b0;stroke-width:0.8;"/>
    <path d="M 239.506721 54.600959 
L 236.639962 159.133715 
L 122.989802 220.441088 
" style="fill:none;stroke:#b0b0b0;stroke-width:0.8;"/>
    <path d="M 260.712087 63.792086 
L 256.899762 169.2087 
L 143.282438 232.082132 
" style="fill:none;stroke:#b0b0b0;stroke-width:0.8;"/>
    <path d="M 282.46645 73.221167 
L 277.661277 179.533184 
L 164.116001 244.033483 
" style="fill:none;stroke:#b0b0b0;stroke-width:0.8;"/>
   </g>
   <g id="xtick_7">
    <g id="line2d_9">
     <path d="M 66.127521 186.775565 
L 63.205665 188.240988 
" style="fill:none;stroke:#000000;stroke-linecap:square;stroke-width:0.8;"/>
    </g>
    <g id="text_9">
     <!-- 0.0 -->
     <g transform="translate(47.501231 208.311697)scale(0.1 -0.1)">
      <use xlink:href="#SimHei-48"/>
      <use x="50" xlink:href="#SimHei-46"/>
      <use x="100" xlink:href="#SimHei-48"/>
     </g>
    </g>
   </g>
   <g id="xtick_8">
    <g id="line2d_10">
     <path d="M 84.919417 197.542469 
L 81.993301 199.045223 
" style="fill:none;stroke:#000000;stroke-linecap:square;stroke-width:0.8;"/>
    </g>
    <g id="text_10">
     <!-- 0.1 -->
     <g transform="translate(66.208789 219.297109)scale(0.1 -0.1)">
      <use xlink:href="#SimHei-48"/>
      <use x="50" xlink:href="#SimHei-46"/>
      <use x="100" xlink:href="#SimHei-49"/>
     </g>
    </g>
   </g>
   <g id="xtick_9">
    <g id="line2d_11">
     <path d="M 104.192694 208.585182 
L 101.263058 210.126712 
" style="fill:none;stroke:#000000;stroke-linecap:square;stroke-width:0.8;"/>
    </g>
    <g id="text_11">
     <!-- 0.2 -->
     <g transform="translate(85.397035 230.56479)scale(0.1 -0.1)">
      <use xlink:href="#SimHei-48"/>
      <use x="50" xlink:href="#SimHei-46"/>
      <use x="100" xlink:href="#SimHei-50"/>
     </g>
    </g>
   </g>
   <g id="xtick_10">
    <g id="line2d_12">
     <path d="M 123.966089 219.91444 
L 121.033736 221.496267 
" style="fill:none;stroke:#000000;stroke-linecap:square;stroke-width:0.8;"/>
    </g>
    <g id="text_12">
     <!-- 0.3 -->
     <g transform="translate(105.084737 242.12576)scale(0.1 -0.1)">
      <use xlink:href="#SimHei-48"/>
      <use x="50" xlink:href="#SimHei-46"/>
      <use x="100" xlink:href="#SimHei-51"/>
     </g>
    </g>
   </g>
   <g id="xtick_11">
    <g id="line2d_13">
     <path d="M 144.259324 231.541543 
L 141.325125 233.165267 
" style="fill:none;stroke:#000000;stroke-linecap:square;stroke-width:0.8;"/>
    </g>
    <g id="text_13">
     <!-- 0.4 -->
     <g transform="translate(125.291652 253.991621)scale(0.1 -0.1)">
      <use xlink:href="#SimHei-48"/>
      <use x="50" xlink:href="#SimHei-46"/>
      <use x="100" xlink:href="#SimHei-52"/>
     </g>
    </g>
   </g>
   <g id="xtick_12">
    <g id="line2d_14">
     <path d="M 165.093173 243.478393 
L 162.15807 245.145702 
" style="fill:none;stroke:#000000;stroke-linecap:square;stroke-width:0.8;"/>
    </g>
    <g id="text_14">
     <!-- 0.5 -->
     <g transform="translate(146.038594 266.174596)scale(0.1 -0.1)">
      <use xlink:href="#SimHei-48"/>
      <use x="50" xlink:href="#SimHei-46"/>
      <use x="100" xlink:href="#SimHei-53"/>
     </g>
    </g>
   </g>
  </g>
  <g id="axis3d_3">
   <g id="line2d_15">
    <path d="M 58.415939 183.39774 
L 53.232913 76.753262 
" style="fill:none;stroke:#000000;stroke-linecap:square;stroke-width:0.8;"/>
   </g>
   <g id="text_15">
    <!-- F3 -->
    <g transform="translate(7.2 134.07823)scale(0.1 -0.1)">
     <use xlink:href="#SimHei-70"/>
     <use x="50" xlink:href="#SimHei-51"/>
    </g>
   </g>
   <g id="Line3DCollection_3">
    <path d="M 58.316719 181.356207 
L 171.924229 124.999674 
L 285.531738 181.356207 
" style="fill:none;stroke:#b0b0b0;stroke-width:0.8;"/>
    <path d="M 57.355885 161.586359 
L 171.924229 106.112601 
L 286.492573 161.586359 
" style="fill:none;stroke:#b0b0b0;stroke-width:0.8;"/>
    <path d="M 56.37866 141.479252 
L 171.924229 86.925135 
L 287.469798 141.479252 
" style="fill:none;stroke:#b0b0b0;stroke-width:0.8;"/>
    <path d="M 55.38462 121.026183 
L 171.924229 67.430051 
L 288.463837 121.026183 
" style="fill:none;stroke:#b0b0b0;stroke-width:0.8;"/>
    <path d="M 54.373329 100.218143 
L 171.924229 47.619892 
L 289.475128 100.218143 
" style="fill:none;stroke:#b0b0b0;stroke-width:0.8;"/>
    <path d="M 53.344333 79.045812 
L 171.924229 27.486957 
L 290.504125 79.045812 
" style="fill:none;stroke:#b0b0b0;stroke-width:0.8;"/>
   </g>
   <g id="xtick_13">
    <g id="line2d_16">
     <path d="M 59.289891 180.873452 
L 56.367038 182.323373 
" style="fill:none;stroke:#000000;stroke-linecap:square;stroke-width:0.8;"/>
    </g>
    <g id="text_16">
     <!-- 0.0 -->
     <g transform="translate(31.144423 188.231207)scale(0.1 -0.1)">
      <use xlink:href="#SimHei-48"/>
      <use x="50" xlink:href="#SimHei-46"/>
      <use x="100" xlink:href="#SimHei-48"/>
     </g>
    </g>
   </g>
   <g id="xtick_14">
    <g id="line2d_17">
     <path d="M 58.337835 161.110901 
L 55.388588 162.538921 
" style="fill:none;stroke:#000000;stroke-linecap:square;stroke-width:0.8;"/>
    </g>
    <g id="text_17">
     <!-- 0.1 -->
     <g transform="translate(30.017211 168.461359)scale(0.1 -0.1)">
      <use xlink:href="#SimHei-48"/>
      <use x="50" xlink:href="#SimHei-46"/>
      <use x="100" xlink:href="#SimHei-49"/>
     </g>
    </g>
   </g>
   <g id="xtick_15">
    <g id="line2d_18">
     <path d="M 57.369548 141.011411 
L 54.393426 142.416568 
" style="fill:none;stroke:#000000;stroke-linecap:square;stroke-width:0.8;"/>
    </g>
    <g id="text_18">
     <!-- 0.2 -->
     <g transform="translate(28.870769 148.354252)scale(0.1 -0.1)">
      <use xlink:href="#SimHei-48"/>
      <use x="50" xlink:href="#SimHei-46"/>
      <use x="100" xlink:href="#SimHei-50"/>
     </g>
    </g>
   </g>
   <g id="xtick_16">
    <g id="line2d_19">
     <path d="M 56.38461 120.566291 
L 53.381122 121.947584 
" style="fill:none;stroke:#000000;stroke-linecap:square;stroke-width:0.8;"/>
    </g>
    <g id="text_19">
     <!-- 0.3 -->
     <g transform="translate(27.704601 127.901183)scale(0.1 -0.1)">
      <use xlink:href="#SimHei-48"/>
      <use x="50" xlink:href="#SimHei-46"/>
      <use x="100" xlink:href="#SimHei-51"/>
     </g>
    </g>
   </g>
   <g id="xtick_17">
    <g id="line2d_20">
     <path d="M 55.382588 99.766549 
L 52.351228 101.122934 
" style="fill:none;stroke:#000000;stroke-linecap:square;stroke-width:0.8;"/>
    </g>
    <g id="text_20">
     <!-- 0.4 -->
     <g transform="translate(26.518195 107.093143)scale(0.1 -0.1)">
      <use xlink:href="#SimHei-48"/>
      <use x="50" xlink:href="#SimHei-46"/>
      <use x="100" xlink:href="#SimHei-52"/>
     </g>
    </g>
   </g>
   <g id="xtick_18">
    <g id="line2d_21">
     <path d="M 54.363035 78.602878 
L 51.303282 79.933266 
" style="fill:none;stroke:#000000;stroke-linecap:square;stroke-width:0.8;"/>
    </g>
    <g id="text_21">
     <!-- 0.5 -->
     <g transform="translate(25.311017 85.920812)scale(0.1 -0.1)">
      <use xlink:href="#SimHei-48"/>
      <use x="50" xlink:href="#SimHei-46"/>
      <use x="100" xlink:href="#SimHei-53"/>
     </g>
    </g>
   </g>
  </g>
  <g id="axes_1">
   <g id="line2d_22">
    <defs>
     <path d="M 0 1.5 
C 0.397805 1.5 0.77937 1.341951 1.06066 1.06066 
C 1.341951 0.77937 1.5 0.397805 1.5 0 
C 1.5 -0.397805 1.341951 -0.77937 1.06066 -1.06066 
C 0.77937 -1.341951 0.397805 -1.5 0 -1.5 
C -0.397805 -1.5 -0.77937 -1.341951 -1.06066 -1.06066 
C -1.341951 -0.77937 -1.5 -0.397805 -1.5 0 
C -1.5 0.397805 -1.341951 0.77937 -1.06066 1.06066 
C -0.77937 1.341951 -0.397805 1.5 0 1.5 
z
" id="m77be1f48f7" style="stroke:#4682b4;"/>
    </defs>
    <g clip-path="url(#p767cfc7551)">
     <use style="fill:#4682b4;stroke:#4682b4;" x="155.632097" xlink:href="#m77be1f48f7" y="106.783282"/>
     <use style="fill:#4682b4;stroke:#4682b4;" x="163.781419" xlink:href="#m77be1f48f7" y="169.006629"/>
     <use style="fill:#4682b4;stroke:#4682b4;" x="221.023019" xlink:href="#m77be1f48f7" y="106.760661"/>
     <use style="fill:#4682b4;stroke:#4682b4;" x="155.659657" xlink:href="#m77be1f48f7" y="131.476332"/>
     <use style="fill:#4682b4;stroke:#4682b4;" x="188.134676" xlink:href="#m77be1f48f7" y="131.377681"/>
     <use style="fill:#4682b4;stroke:#4682b4;" x="163.803155" xlink:href="#m77be1f48f7" y="45.649649"/>
     <use style="fill:#4682b4;stroke:#4682b4;" x="221.400225" xlink:href="#m77be1f48f7" y="156.081961"/>
     <use style="fill:#4682b4;stroke:#4682b4;" x="237.971791" xlink:href="#m77be1f48f7" y="156.459721"/>
     <use style="fill:#4682b4;stroke:#4682b4;" x="171.92456" xlink:href="#m77be1f48f7" y="106.619975"/>
     <use style="fill:#4682b4;stroke:#4682b4;" x="147.19061" xlink:href="#m77be1f48f7" y="143.802532"/>
     <use style="fill:#4682b4;stroke:#4682b4;" x="213.084269" xlink:href="#m77be1f48f7" y="143.870607"/>
     <use style="fill:#4682b4;stroke:#4682b4;" x="105.919989" xlink:href="#m77be1f48f7" y="181.365178"/>
     <use style="fill:#4682b4;stroke:#4682b4;" x="130.88897" xlink:href="#m77be1f48f7" y="143.945339"/>
     <use style="fill:#4682b4;stroke:#4682b4;" x="155.337913" xlink:href="#m77be1f48f7" y="156.311937"/>
     <use style="fill:#4682b4;stroke:#4682b4;" x="246.59254" xlink:href="#m77be1f48f7" y="168.806082"/>
     <use style="fill:#4682b4;stroke:#4682b4;" x="254.272988" xlink:href="#m77be1f48f7" y="156.292994"/>
     <use style="fill:#4682b4;stroke:#4682b4;" x="122.665929" xlink:href="#m77be1f48f7" y="131.332754"/>
     <use style="fill:#4682b4;stroke:#4682b4;" x="139.343718" xlink:href="#m77be1f48f7" y="156.417335"/>
     <use style="fill:#4682b4;stroke:#4682b4;" x="97.654411" xlink:href="#m77be1f48f7" y="168.8063"/>
     <use style="fill:#4682b4;stroke:#4682b4;" x="180.197584" xlink:href="#m77be1f48f7" y="169.012605"/>
     <use style="fill:#4682b4;stroke:#4682b4;" x="237.607822" xlink:href="#m77be1f48f7" y="131.452874"/>
     <use style="fill:#4682b4;stroke:#4682b4;" x="122.400468" xlink:href="#m77be1f48f7" y="156.636633"/>
     <use style="fill:#4682b4;stroke:#4682b4;" x="229.370077" xlink:href="#m77be1f48f7" y="143.870616"/>
     <use style="fill:#4682b4;stroke:#4682b4;" x="147.17218" xlink:href="#m77be1f48f7" y="168.749728"/>
     <use style="fill:#4682b4;stroke:#4682b4;" x="139.372483" xlink:href="#m77be1f48f7" y="106.797044"/>
     <use style="fill:#4682b4;stroke:#4682b4;" x="147.322128" xlink:href="#m77be1f48f7" y="94.277826"/>
     <use style="fill:#4682b4;stroke:#4682b4;" x="122.327743" xlink:href="#m77be1f48f7" y="181.357185"/>
     <use style="fill:#4682b4;stroke:#4682b4;" x="188.283603" xlink:href="#m77be1f48f7" y="106.755671"/>
     <use style="fill:#4682b4;stroke:#4682b4;" x="188.246697" xlink:href="#m77be1f48f7" y="156.247949"/>
     <use style="fill:#4682b4;stroke:#4682b4;" x="139.056717" xlink:href="#m77be1f48f7" y="181.357997"/>
     <use style="fill:#4682b4;stroke:#4682b4;" x="245.923351" xlink:href="#m77be1f48f7" y="143.871431"/>
     <use style="fill:#4682b4;stroke:#4682b4;" x="188.34522" xlink:href="#m77be1f48f7" y="181.366024"/>
     <use style="fill:#4682b4;stroke:#4682b4;" x="147.245201" xlink:href="#m77be1f48f7" y="119.067559"/>
     <use style="fill:#4682b4;stroke:#4682b4;" x="204.899491" xlink:href="#m77be1f48f7" y="131.474479"/>
     <use style="fill:#4682b4;stroke:#4682b4;" x="196.518977" xlink:href="#m77be1f48f7" y="119.050162"/>
     <use style="fill:#4682b4;stroke:#4682b4;" x="180.13027" xlink:href="#m77be1f48f7" y="119.053299"/>
     <use style="fill:#4682b4;stroke:#4682b4;" x="204.588418" xlink:href="#m77be1f48f7" y="156.470277"/>
     <use style="fill:#4682b4;stroke:#4682b4;" x="171.965037" xlink:href="#m77be1f48f7" y="131.473917"/>
     <use style="fill:#4682b4;stroke:#4682b4;" x="163.672902" xlink:href="#m77be1f48f7" y="143.819581"/>
     <use style="fill:#4682b4;stroke:#4682b4;" x="263.040636" xlink:href="#m77be1f48f7" y="168.993903"/>
     <use style="fill:#4682b4;stroke:#4682b4;" x="221.045544" xlink:href="#m77be1f48f7" y="131.47409"/>
     <use style="fill:#4682b4;stroke:#4682b4;" x="180.166034" xlink:href="#m77be1f48f7" y="143.89904"/>
     <use style="fill:#4682b4;stroke:#4682b4;" x="106.220068" xlink:href="#m77be1f48f7" y="156.265828"/>
     <use style="fill:#4682b4;stroke:#4682b4;" x="155.562352" xlink:href="#m77be1f48f7" y="81.995531"/>
     <use style="fill:#4682b4;stroke:#4682b4;" x="114.299611" xlink:href="#m77be1f48f7" y="168.801472"/>
     <use style="fill:#4682b4;stroke:#4682b4;" x="130.715154" xlink:href="#m77be1f48f7" y="168.844566"/>
     <use style="fill:#4682b4;stroke:#4682b4;" x="238.239629" xlink:href="#m77be1f48f7" y="181.357834"/>
     <use style="fill:#4682b4;stroke:#4682b4;" x="180.04034" xlink:href="#m77be1f48f7" y="45.662337"/>
     <use style="fill:#4682b4;stroke:#4682b4;" x="163.839033" xlink:href="#m77be1f48f7" y="94.347426"/>
     <use style="fill:#4682b4;stroke:#4682b4;" x="89.219623" xlink:href="#m77be1f48f7" y="181.359019"/>
     <use style="fill:#4682b4;stroke:#4682b4;" x="229.269202" xlink:href="#m77be1f48f7" y="119.050945"/>
     <use style="fill:#4682b4;stroke:#4682b4;" x="171.98522" xlink:href="#m77be1f48f7" y="156.309073"/>
     <use style="fill:#4682b4;stroke:#4682b4;" x="172.207238" xlink:href="#m77be1f48f7" y="181.359813"/>
     <use style="fill:#4682b4;stroke:#4682b4;" x="81.200094" xlink:href="#m77be1f48f7" y="168.797331"/>
     <use style="fill:#4682b4;stroke:#4682b4;" x="122.86213" xlink:href="#m77be1f48f7" y="106.636069"/>
     <use style="fill:#4682b4;stroke:#4682b4;" x="188.37494" xlink:href="#m77be1f48f7" y="82.157959"/>
     <use style="fill:#4682b4;stroke:#4682b4;" x="163.730148" xlink:href="#m77be1f48f7" y="119.060239"/>
     <use style="fill:#4682b4;stroke:#4682b4;" x="229.600419" xlink:href="#m77be1f48f7" y="168.724566"/>
     <use style="fill:#4682b4;stroke:#4682b4;" x="114.576243" xlink:href="#m77be1f48f7" y="119.051671"/>
     <use style="fill:#4682b4;stroke:#4682b4;" x="89.693293" xlink:href="#m77be1f48f7" y="156.264911"/>
     <use style="fill:#4682b4;stroke:#4682b4;" x="196.536097" xlink:href="#m77be1f48f7" y="143.822553"/>
     <use style="fill:#4682b4;stroke:#4682b4;" x="72.775857" xlink:href="#m77be1f48f7" y="181.356207"/>
     <use style="fill:#4682b4;stroke:#4682b4;" x="254.724085" xlink:href="#m77be1f48f7" y="181.353906"/>
     <use style="fill:#4682b4;stroke:#4682b4;" x="131.129795" xlink:href="#m77be1f48f7" y="94.396805"/>
     <use style="fill:#4682b4;stroke:#4682b4;" x="139.155595" xlink:href="#m77be1f48f7" y="82.429062"/>
     <use style="fill:#4682b4;stroke:#4682b4;" x="155.391857" xlink:href="#m77be1f48f7" y="181.381185"/>
     <use style="fill:#4682b4;stroke:#4682b4;" x="147.503825" xlink:href="#m77be1f48f7" y="69.97487"/>
     <use style="fill:#4682b4;stroke:#4682b4;" x="204.957667" xlink:href="#m77be1f48f7" y="181.352233"/>
     <use style="fill:#4682b4;stroke:#4682b4;" x="130.783002" xlink:href="#m77be1f48f7" y="118.792726"/>
     <use style="fill:#4682b4;stroke:#4682b4;" x="204.512629" xlink:href="#m77be1f48f7" y="82.144819"/>
     <use style="fill:#4682b4;stroke:#4682b4;" x="114.342864" xlink:href="#m77be1f48f7" y="143.856949"/>
     <use style="fill:#4682b4;stroke:#4682b4;" x="196.368858" xlink:href="#m77be1f48f7" y="69.9955"/>
     <use style="fill:#4682b4;stroke:#4682b4;" x="196.416122" xlink:href="#m77be1f48f7" y="94.391028"/>
     <use style="fill:#4682b4;stroke:#4682b4;" x="188.212665" xlink:href="#m77be1f48f7" y="57.853115"/>
     <use style="fill:#4682b4;stroke:#4682b4;" x="155.684065" xlink:href="#m77be1f48f7" y="57.768765"/>
     <use style="fill:#4682b4;stroke:#4682b4;" x="171.957229" xlink:href="#m77be1f48f7" y="57.768822"/>
     <use style="fill:#4682b4;stroke:#4682b4;" x="212.80503" xlink:href="#m77be1f48f7" y="119.181819"/>
     <use style="fill:#4682b4;stroke:#4682b4;" x="212.79493" xlink:href="#m77be1f48f7" y="94.461887"/>
     <use style="fill:#4682b4;stroke:#4682b4;" x="180.045728" xlink:href="#m77be1f48f7" y="69.986932"/>
     <use style="fill:#4682b4;stroke:#4682b4;" x="139.05315" xlink:href="#m77be1f48f7" y="131.474853"/>
     <use style="fill:#4682b4;stroke:#4682b4;" x="171.924229" xlink:href="#m77be1f48f7" y="33.586908"/>
     <use style="fill:#4682b4;stroke:#4682b4;" x="180.208413" xlink:href="#m77be1f48f7" y="93.939162"/>
     <use style="fill:#4682b4;stroke:#4682b4;" x="171.869826" xlink:href="#m77be1f48f7" y="82.045957"/>
     <use style="fill:#4682b4;stroke:#4682b4;" x="271.072601" xlink:href="#m77be1f48f7" y="181.356207"/>
     <use style="fill:#4682b4;stroke:#4682b4;" x="221.377799" xlink:href="#m77be1f48f7" y="181.353127"/>
     <use style="fill:#4682b4;stroke:#4682b4;" x="97.933239" xlink:href="#m77be1f48f7" y="143.855588"/>
     <use style="fill:#4682b4;stroke:#4682b4;" x="196.718203" xlink:href="#m77be1f48f7" y="168.847042"/>
     <use style="fill:#4682b4;stroke:#4682b4;" x="204.919542" xlink:href="#m77be1f48f7" y="106.644539"/>
     <use style="fill:#4682b4;stroke:#4682b4;" x="163.779143" xlink:href="#m77be1f48f7" y="70.006861"/>
     <use style="fill:#4682b4;stroke:#4682b4;" x="106.267655" xlink:href="#m77be1f48f7" y="131.447965"/>
     <use style="fill:#4682b4;stroke:#4682b4;" x="213.130432" xlink:href="#m77be1f48f7" y="168.817029"/>
    </g>
   </g>
   <g id="legend_1">
    <g id="patch_6">
     <path d="M 196.989958 28.45 
L 288.989958 28.45 
Q 290.989958 28.45 290.989958 26.45 
L 290.989958 14.2 
Q 290.989958 12.2 288.989958 12.2 
L 196.989958 12.2 
Q 194.989958 12.2 194.989958 14.2 
L 194.989958 26.45 
Q 194.989958 28.45 196.989958 28.45 
z
" style="fill:#ffffff;opacity:0.8;stroke:#cccccc;stroke-linejoin:miter;"/>
    </g>
    <g id="line2d_23"/>
    <g id="line2d_24">
     <g>
      <use style="fill:#4682b4;stroke:#4682b4;" x="208.989958" xlink:href="#m77be1f48f7" y="19.7"/>
     </g>
    </g>
    <g id="text_22">
     <!-- Pareto Front -->
     <g transform="translate(226.989958 23.2)scale(0.1 -0.1)">
      <defs>
       <path d="M 46.09375 48.4375 
Q 46.09375 39.0625 40.625 33.59375 
Q 35.15625 28.125 25.390625 28.125 
L 14.0625 28.125 
L 14.0625 1.953125 
L 5.078125 1.953125 
L 5.078125 68.75 
L 25.390625 68.75 
Q 35.15625 68.75 40.625 63.28125 
Q 46.09375 57.8125 46.09375 48.4375 
z
M 37.109375 48.4375 
Q 37.109375 55.859375 33.59375 58.59375 
Q 30.078125 61.328125 23.046875 61.328125 
L 14.0625 61.328125 
L 14.0625 35.546875 
L 23.046875 35.546875 
Q 30.078125 35.546875 33.59375 38.28125 
Q 37.109375 41.015625 37.109375 48.4375 
z
" id="SimHei-80"/>
       <path d="M 44.921875 1.953125 
L 35.546875 1.953125 
Q 34.765625 2.734375 34.375 4.09375 
Q 33.984375 5.46875 33.984375 7.421875 
Q 31.25 4.296875 27.34375 2.734375 
Q 23.4375 1.171875 19.140625 1.171875 
Q 12.890625 1.171875 8.59375 4.296875 
Q 4.296875 7.421875 4.296875 13.28125 
Q 4.296875 19.140625 8.203125 22.65625 
Q 12.109375 26.171875 20.3125 27.34375 
Q 25.78125 28.125 29.875 29.296875 
Q 33.984375 30.46875 33.984375 32.421875 
Q 33.984375 34.765625 32.21875 37.109375 
Q 30.46875 39.453125 24.609375 39.453125 
Q 19.921875 39.453125 17.765625 37.6875 
Q 15.625 35.9375 14.84375 32.8125 
L 6.25 32.8125 
Q 7.03125 39.0625 11.90625 42.765625 
Q 16.796875 46.484375 24.609375 46.484375 
Q 33.203125 46.484375 37.5 42.578125 
Q 41.796875 38.671875 41.796875 31.640625 
L 41.796875 10.15625 
Q 41.796875 7.8125 42.578125 5.859375 
Q 43.359375 3.90625 44.921875 1.953125 
z
M 33.984375 16.40625 
L 33.984375 24.21875 
Q 31.640625 23.4375 29.484375 22.84375 
Q 27.34375 22.265625 22.265625 21.484375 
Q 16.40625 20.703125 14.640625 18.75 
Q 12.890625 16.796875 12.890625 14.0625 
Q 12.890625 11.71875 14.640625 9.953125 
Q 16.40625 8.203125 19.921875 8.203125 
Q 23.4375 8.203125 27.53125 10.15625 
Q 31.640625 12.109375 33.984375 16.40625 
z
" id="SimHei-97"/>
       <path d="M 39.0625 37.890625 
Q 31.640625 39.0625 26.5625 35.734375 
Q 21.484375 32.421875 17.96875 24.21875 
L 17.96875 1.953125 
L 10.15625 1.953125 
L 10.15625 45.703125 
L 17.96875 45.703125 
L 17.96875 34.375 
Q 21.484375 40.625 26.75 43.546875 
Q 32.03125 46.484375 39.0625 46.484375 
z
" id="SimHei-114"/>
       <path d="M 44.53125 16.796875 
Q 43.75 9.765625 38.28125 5.46875 
Q 32.8125 1.171875 25.390625 1.171875 
Q 16.015625 1.171875 9.953125 7.21875 
Q 3.90625 13.28125 3.90625 23.828125 
Q 3.90625 34.375 9.953125 40.421875 
Q 16.015625 46.484375 25.390625 46.484375 
Q 33.59375 46.484375 38.859375 41.203125 
Q 44.140625 35.9375 44.140625 23.828125 
L 12.5 23.828125 
Q 12.5 15.234375 16.203125 11.71875 
Q 19.921875 8.203125 25.390625 8.203125 
Q 29.6875 8.203125 32.421875 10.34375 
Q 35.15625 12.5 35.9375 16.796875 
z
M 35.15625 30.078125 
Q 34.375 35.546875 31.640625 37.6875 
Q 28.90625 39.84375 24.609375 39.84375 
Q 20.703125 39.84375 17.578125 37.6875 
Q 14.453125 35.546875 12.890625 30.078125 
z
" id="SimHei-101"/>
       <path d="M 42.96875 3.125 
Q 41.015625 2.34375 38.46875 1.75 
Q 35.9375 1.171875 31.640625 1.171875 
Q 24.609375 1.171875 20.3125 5.078125 
Q 16.015625 8.984375 16.015625 16.015625 
L 16.015625 39.453125 
L 2.734375 39.453125 
L 2.734375 45.703125 
L 16.015625 45.703125 
L 16.015625 60.9375 
L 23.828125 60.9375 
L 23.828125 45.703125 
L 39.84375 45.703125 
L 39.84375 39.453125 
L 23.828125 39.453125 
L 23.828125 15.625 
Q 23.828125 12.5 25.390625 10.34375 
Q 26.953125 8.203125 31.25 8.203125 
Q 35.546875 8.203125 38.28125 8.984375 
Q 41.015625 9.765625 42.96875 10.9375 
z
" id="SimHei-116"/>
       <path d="M 45.703125 23.828125 
Q 45.703125 13.671875 39.453125 7.421875 
Q 33.203125 1.171875 24.609375 1.171875 
Q 16.015625 1.171875 9.765625 7.421875 
Q 3.515625 13.671875 3.515625 23.828125 
Q 3.515625 33.984375 9.765625 40.234375 
Q 16.015625 46.484375 24.609375 46.484375 
Q 33.203125 46.484375 39.453125 40.234375 
Q 45.703125 33.984375 45.703125 23.828125 
z
M 37.109375 23.828125 
Q 37.109375 31.640625 33.203125 35.546875 
Q 29.296875 39.453125 24.609375 39.453125 
Q 19.921875 39.453125 16.015625 35.546875 
Q 12.109375 31.640625 12.109375 23.828125 
Q 12.109375 16.015625 16.015625 12.109375 
Q 19.921875 8.203125 24.609375 8.203125 
Q 29.296875 8.203125 33.203125 12.109375 
Q 37.109375 16.015625 37.109375 23.828125 
z
" id="SimHei-111"/>
       <path id="SimHei-32"/>
       <path d="M 43.75 1.953125 
L 35.9375 1.953125 
L 35.9375 30.078125 
Q 35.9375 34.765625 33.59375 37.5 
Q 31.25 40.234375 27.34375 40.234375 
Q 22.265625 40.234375 17.765625 34.953125 
Q 13.28125 29.6875 13.28125 21.875 
L 13.28125 1.953125 
L 5.46875 1.953125 
L 5.46875 45.703125 
L 13.28125 45.703125 
L 13.28125 37.5 
Q 16.40625 41.796875 20.109375 44.140625 
Q 23.828125 46.484375 29.6875 46.484375 
Q 36.71875 46.484375 40.234375 42.578125 
Q 43.75 38.671875 43.75 32.8125 
z
" id="SimHei-110"/>
      </defs>
      <use xlink:href="#SimHei-80"/>
      <use x="50" xlink:href="#SimHei-97"/>
      <use x="100" xlink:href="#SimHei-114"/>
      <use x="150" xlink:href="#SimHei-101"/>
      <use x="200" xlink:href="#SimHei-116"/>
      <use x="250" xlink:href="#SimHei-111"/>
      <use x="300" xlink:href="#SimHei-32"/>
      <use x="350" xlink:href="#SimHei-70"/>
      <use x="400" xlink:href="#SimHei-114"/>
      <use x="450" xlink:href="#SimHei-111"/>
      <use x="500" xlink:href="#SimHei-110"/>
      <use x="550" xlink:href="#SimHei-116"/>
     </g>
    </g>
   </g>
  </g>
 </g>
 <defs>
  <clipPath id="p767cfc7551">
   <rect height="255.024" width="255.024" x="40.965958" y="7.2"/>
  </clipPath>
 </defs>
</svg>
